<?xml version="1.0" encoding="UTF-8" standalone="no"?>
<svg
   xmlns:dc="http://purl.org/dc/elements/1.1/"
   xmlns:cc="http://creativecommons.org/ns#"
   xmlns:rdf="http://www.w3.org/1999/02/22-rdf-syntax-ns#"
   xmlns:svg="http://www.w3.org/2000/svg"
   xmlns="http://www.w3.org/2000/svg"
   xmlns:xlink="http://www.w3.org/1999/xlink"
   xmlns:sodipodi="http://sodipodi.sourceforge.net/DTD/sodipodi-0.dtd"
   xmlns:inkscape="http://www.inkscape.org/namespaces/inkscape"
   width="32"
   height="128"
   viewBox="0 0 8.4666665 33.866668"
   version="1.1"
   id="svg455"
   inkscape:version="1.0.1 (3bc2e813f5, 2020-09-07)"
   sodipodi:docname="Tx_Raindrop_01.svg"
   inkscape:export-filename="/home/matjaz/Desktop/Tx_Raindrop_01.png"
   inkscape:export-xdpi="96"
   inkscape:export-ydpi="96">
  <defs
     id="defs449">
    <linearGradient
       inkscape:collect="always"
       id="linearGradient2076">
      <stop
         style="stop-color:#ffffff;stop-opacity:1;"
         offset="0"
         id="stop2072" />
      <stop
         style="stop-color:#ffffff;stop-opacity:0;"
         offset="1"
         id="stop2074" />
    </linearGradient>
    <linearGradient
       inkscape:collect="always"
       id="linearGradient1322">
      <stop
         style="stop-color:#ffffff;stop-opacity:1;"
         offset="0"
         id="stop1318" />
      <stop
         style="stop-color:#ffffff;stop-opacity:0;"
         offset="1"
         id="stop1320" />
    </linearGradient>
    <linearGradient
       inkscape:collect="always"
       id="linearGradient1289">
      <stop
         style="stop-color:#ffffff;stop-opacity:1;"
         offset="0"
         id="stop1285" />
      <stop
         style="stop-color:#ffffff;stop-opacity:0;"
         offset="1"
         id="stop1287" />
    </linearGradient>
    <linearGradient
       inkscape:collect="always"
       xlink:href="#linearGradient1289"
       id="linearGradient1291"
       x1="4.2333331"
       y1="30.691666"
       x2="4.2333331"
       y2="3.175"
       gradientUnits="userSpaceOnUse"
       gradientTransform="matrix(0.67318087,0,0,0.84113972,1.7294179,7.36865)" />
    <linearGradient
       inkscape:collect="always"
       xlink:href="#linearGradient1289"
       id="linearGradient1295"
       gradientUnits="userSpaceOnUse"
       x1="4.2333331"
       y1="30.691666"
       x2="4.2333331"
       y2="3.175"
       gradientTransform="matrix(0.39856093,0,0,0.83684251,2.7590207,7.440279)" />
    <linearGradient
       inkscape:collect="always"
       xlink:href="#linearGradient1322"
       id="linearGradient1324"
       x1="3.8623731"
       y1="32.051113"
       x2="3.8284192"
       y2="27.192936"
       gradientUnits="userSpaceOnUse"
       gradientTransform="matrix(1.1956828,0,0,0.99489121,-0.82636682,0.10927389)" />
    <filter
       inkscape:collect="always"
       style="color-interpolation-filters:sRGB"
       id="filter1470"
       x="-0.31075416"
       width="1.6215083"
       y="-0.028155028"
       height="1.0563101">
      <feGaussianBlur
         inkscape:collect="always"
         stdDeviation="0.2767459"
         id="feGaussianBlur1472" />
    </filter>
    <filter
       inkscape:collect="always"
       style="color-interpolation-filters:sRGB"
       id="filter1816"
       x="-0.65448622"
       width="2.3089724"
       y="-0.03309696"
       height="1.0661939">
      <feGaussianBlur
         inkscape:collect="always"
         stdDeviation="0.13474098"
         id="feGaussianBlur1818" />
    </filter>
    <linearGradient
       inkscape:collect="always"
       xlink:href="#linearGradient2076"
       id="linearGradient2078"
       x1="6.9317684"
       y1="30.66083"
       x2="6.8666296"
       y2="24.16618"
       gradientUnits="userSpaceOnUse"
       gradientTransform="translate(-2.3452895,-0.07516955)" />
    <filter
       inkscape:collect="always"
       style="color-interpolation-filters:sRGB"
       id="filter2140"
       x="-0.25577644"
       width="1.5115529"
       y="-0.015365532"
       height="1.0307311">
      <feGaussianBlur
         inkscape:collect="always"
         stdDeviation="0.048125827"
         id="feGaussianBlur2142" />
    </filter>
    <linearGradient
       inkscape:collect="always"
       xlink:href="#linearGradient2076"
       id="linearGradient2145"
       gradientUnits="userSpaceOnUse"
       gradientTransform="translate(-2.3452895,-0.07516955)"
       x1="6.9317684"
       y1="30.66083"
       x2="6.8666296"
       y2="24.16618" />
    <linearGradient
       inkscape:collect="always"
       xlink:href="#linearGradient2076"
       id="linearGradient2286"
       gradientUnits="userSpaceOnUse"
       gradientTransform="translate(-2.3452895,-0.07516955)"
       x1="6.9317684"
       y1="30.66083"
       x2="6.8666296"
       y2="24.16618" />
  </defs>
  <sodipodi:namedview
     id="base"
     pagecolor="#222222"
     bordercolor="#666666"
     borderopacity="1.0"
     inkscape:pageopacity="0"
     inkscape:pageshadow="2"
     inkscape:zoom="2.8"
     inkscape:cx="-58.386688"
     inkscape:cy="61.002413"
     inkscape:document-units="mm"
     inkscape:current-layer="layer1"
     inkscape:document-rotation="0"
     showgrid="false"
     units="px"
     inkscape:window-width="3840"
     inkscape:window-height="2055"
     inkscape:window-x="0"
     inkscape:window-y="0"
     inkscape:window-maximized="1"
     inkscape:snap-global="false">
    <inkscape:grid
       type="xygrid"
       id="grid457"
       empspacing="4"
       color="#63ecff"
       opacity="0.18039216"
       empcolor="#2d5d93"
       empopacity="0.25098039"
       spacingx="1.0583333"
       spacingy="1.0583333" />
  </sodipodi:namedview>
  <metadata
     id="metadata452">
    <rdf:RDF>
      <cc:Work
         rdf:about="">
        <dc:format>image/svg+xml</dc:format>
        <dc:type
           rdf:resource="http://purl.org/dc/dcmitype/StillImage" />
        <dc:title></dc:title>
      </cc:Work>
    </rdf:RDF>
  </metadata>
  <g
     inkscape:label="Layer 1"
     inkscape:groupmode="layer"
     id="layer1"
     style="opacity:1">
    <path
       id="path459"
       style="opacity:0.17;fill:url(#linearGradient1291);fill-opacity:1;stroke:none;stroke-width:0.172423;filter:url(#filter1470)"
       d="m 5.2916665,31.404216 c -10e-8,0.983294 -0.4784621,1.780412 -1.0686746,1.780412 -0.5902126,0 -1.0686744,-0.797118 -1.0686746,-1.780412 -1e-7,-0.983295 0.4784618,-21.8100515 1.0686746,-21.8100516 0.5902127,0 1.0686747,20.8267566 1.0686746,21.8100516 z"
       sodipodi:nodetypes="sssss"
       transform="matrix(1.1956828,0,0,0.99489121,-0.82636682,0.10927389)" />
    <path
       id="path1293"
       style="opacity:0.14;fill:url(#linearGradient1295);fill-opacity:1;stroke:none;stroke-width:0.132331"
       d="m 4.8680722,31.353052 c -1e-7,0.978271 -0.2832765,1.771317 -0.6327155,1.771317 -0.3494389,0 -0.6327153,-0.793046 -0.6327154,-1.771317 -1e-7,-0.978271 0.2832764,-21.6986281 0.6327154,-21.6986282 0.3494392,0 0.6327156,20.7203572 0.6327155,21.6986282 z"
       sodipodi:nodetypes="sssss" />
    <path
       id="path1315"
       style="opacity:0.254857;fill:url(#linearGradient1324);fill-opacity:1;stroke:none;stroke-width:0.288574"
       d="m 3.9292263,29.421045 c 0.01271,3.086359 0.8645891,3.137042 0.1036041,3.38584 -0.5338261,0.174531 -0.4810935,-1.737854 -0.4810935,-3.38584 0,-1.647986 0.084504,-2.983942 0.1887449,-2.983942 0.1042407,0 0.1819582,1.335966 0.1887445,2.983942 z"
       sodipodi:nodetypes="sssss" />
    <path
       id="path1326"
       style="opacity:0.710857;fill:none;fill-opacity:1;stroke:url(#linearGradient2286);stroke-width:0.265;stroke-linecap:round;stroke-linejoin:miter;stroke-miterlimit:4;stroke-dasharray:none;stroke-opacity:0.260778;filter:url(#filter2140)"
       d="M 4.5235386,31.202048 C 4.61891,30.978684 4.647551,30.723918 4.6924008,30.48367 4.8010953,29.797237 4.7608198,29.099237 4.7574338,28.407291 4.7401809,27.985428 4.6909026,27.565333 4.7039448,27.142893 4.6143094,26.554771 4.5062201,25.968999 4.3976182,25.384139 4.3530924,24.884255 4.3040693,24.384004 4.330156,23.881277 4.3310909,23.815597 4.329146,23.749134 4.313063,23.685095"
       transform="matrix(1.1956828,0,0,0.99489121,-0.82636682,0.10927389)" />
    <path
       style="opacity:0.28;fill:none;stroke:#ffffff;stroke-width:0.265;stroke-linecap:round;stroke-linejoin:miter;stroke-miterlimit:4;stroke-dasharray:none;stroke-opacity:0.260778;filter:url(#filter1816)"
       d="m 4.0731255,25.353856 c -0.010022,-0.01503 -0.024355,-0.02796 -0.030067,-0.0451 -0.01461,-0.04383 -0.01968,-0.09029 -0.030068,-0.135305 -0.01968,-0.08528 -0.043375,-0.169678 -0.060136,-0.255577 -0.044423,-0.227669 -0.089201,-0.538218 -0.1052372,-0.766728 -0.020042,-0.28561 -0.015034,-0.616083 -0.015034,-0.902034 0,-0.575746 -0.00705,-0.468619 0.030069,-1.127543 0.00763,-0.135461 0.025138,-0.27033 0.030067,-0.405918 0.0051,-0.140224 -0.012052,-0.281152 0,-0.42095 0.013092,-0.151849 0.050513,-0.300611 0.07517,-0.451016 0.094375,-0.575686 0.048883,-0.334248 0.1503389,-0.871967 0.024601,-0.13038 0.056774,-0.259482 0.07517,-0.390881 0.016732,-0.119523 0.01914,-0.240622 0.030067,-0.360814 0.025588,-0.281478 0.03656,-0.297956 0.045102,-0.571289 0.00516,-0.165292 0,-0.330746 0,-0.496119 0,-0.106725 0.031705,-2.465994 0.057555,-2.569395"
       id="path1328"
       sodipodi:nodetypes="csssssssssssscsc"
       transform="matrix(1.1956828,0,0,0.99489121,-0.82636682,0.10927389)" />
  </g>
</svg>
